<?xml version="1.0" encoding="UTF-8" standalone="no"?>
<svg width="47px" height="37px" viewBox="0 0 47 37" version="1.1" xmlns="http://www.w3.org/2000/svg" xmlns:xlink="http://www.w3.org/1999/xlink" xmlns:sketch="http://www.bohemiancoding.com/sketch/ns">
    <!-- Generator: Sketch 3.3.2 (12043) - http://www.bohemiancoding.com/sketch -->
    <title>btn-list</title>
    <desc>Created with Sketch.</desc>
    <defs></defs>
    <g id="Welcome" stroke="none" stroke-width="1" fill="none" fill-rule="evenodd" sketch:type="MSPage">
        <g id="iPhone6@2x-Copy-6" sketch:type="MSArtboardGroup" transform="translate(-565.000000, -1176.000000)" fill="#FFFFFF">
            <g id="操作部分-copy" sketch:type="MSLayerGroup" transform="translate(132.000000, 1166.000000)">
                <path d="M479,10 C479.605403,10 480,10.2240602 480,10.6 L480,12.4 C480,12.7764411 479.606226,13 479,13 L444,13 C443.394597,13 443,12.7759398 443,12.4 L443,10.6 C443.000822,10.2240602 443.395419,10 444,10 L479,10 Z M479,27 C479.605403,27 480,27.2240602 480,27.6 L480,29.4 C480,29.7764411 479.606226,30 479,30 L444,30 C443.394597,30 443,29.7759398 443,29.4 L443,27.6 C443.000822,27.2240602 443.395419,27 444,27 L479,27 Z M479,44 C479.605403,44 480,44.2240602 480,44.6 L480,46.4 C480,46.7764411 479.606226,47 479,47 L444,47 C443.394597,47 443,46.7759398 443,46.4 L443,44.6 C443.000822,44.2240602 443.395419,44 444,44 L479,44 Z M433,11.5 C433,10.6715729 433.665797,10 434.5,10 C435.328427,10 436,10.6657972 436,11.5 C436,12.3284271 435.334203,13 434.5,13 C433.671573,13 433,12.3342028 433,11.5 Z M433,28.5 C433,27.6715729 433.665797,27 434.5,27 C435.328427,27 436,27.6657972 436,28.5 C436,29.3284271 435.334203,30 434.5,30 C433.671573,30 433,29.3342028 433,28.5 Z M433,45.5 C433,44.6715729 433.665797,44 434.5,44 C435.328427,44 436,44.6657972 436,45.5 C436,46.3284271 435.334203,47 434.5,47 C433.671573,47 433,46.3342028 433,45.5 Z" id="btn-list" sketch:type="MSShapeGroup"></path>
            </g>
        </g>
    </g>
</svg>