<?xml version="1.0" encoding="UTF-8" standalone="no"?>
<svg width="48px" height="51px" viewBox="0 0 48 51" version="1.1" xmlns="http://www.w3.org/2000/svg" xmlns:xlink="http://www.w3.org/1999/xlink" xmlns:sketch="http://www.bohemiancoding.com/sketch/ns">
    <!-- Generator: Sketch 3.3.2 (12043) - http://www.bohemiancoding.com/sketch -->
    <title>btn-fav</title>
    <desc>Created with Sketch.</desc>
    <defs></defs>
    <g id="Welcome" stroke="none" stroke-width="1" fill="none" fill-rule="evenodd" sketch:type="MSPage">
        <g id="iPhone6@2x-Copy-6" sketch:type="MSArtboardGroup" transform="translate(-134.000000, -1169.000000)" fill="#FFFFFF">
            <g id="操作部分-copy" sketch:type="MSLayerGroup" transform="translate(132.000000, 1166.000000)">
                <g id="btn-fav" transform="translate(2.000000, 3.000000)" sketch:type="MSShapeGroup">
                    <path d="M21.2276376,4.42383295 L21.2276376,4.42383295 L21.2276376,4.42383295 L3.05693001,12.6010308 C3.12615622,12.5698775 3,12.7655031 3,12.6962093 L3,36.3068407 C3,36.3207619 3.18174644,36.6248491 3.19165878,36.630202 L21.5789608,46.5598058 C23.1060488,47.3844715 25.927345,47.3566961 27.4352287,46.5036251 L44.779995,36.6909878 C44.8006615,36.6792959 45,36.3366743 45,36.3068407 L45,13.6963337 C45,13.196493 44.4532801,12.3315114 44.0087138,12.1219205 L27.7986598,4.47968324 C26.0931188,3.67560518 22.949175,3.64910515 21.2276376,4.42383295 L21.2276376,4.42383295 Z M19.996496,1.68808981 C22.5158222,0.554340449 26.5770684,0.587079886 29.077966,1.76612921 L45.2880201,9.40836642 C46.7858052,10.1144979 48,12.0382471 48,13.6963337 L48,36.3068407 C48,37.4165347 47.2200474,38.7573703 46.2572019,39.3020909 L28.9124356,49.1147283 C26.5076243,50.4752275 22.589957,50.5152622 20.1534629,49.1994943 L1.76616083,39.2698905 C0.790737139,38.7431373 0,37.4281395 0,36.3068407 L0,12.6962093 C0,11.5865153 0.81709325,10.3192215 1.82578847,9.86528761 L19.996496,1.68808981 L19.996496,1.68808981 Z" id="Shape"></path>
                    <path d="M1.37892712,14.3653822 L22.5549305,23.9977339 C23.0282113,24.2130157 23.4999997,24.9453649 23.4999997,25.4659562 L23.5,49 L26.5,49 L26.4999997,25.4659562 C26.4999997,23.7688213 25.3405722,21.9690613 23.7970763,21.2669696 L2.62107288,11.6346178 L1.37892712,14.3653822 L1.37892712,14.3653822 Z" id="Shape"></path>
                    <path d="M46.3789271,11.6346178 L25.2029237,21.2669696 C23.6594278,21.9690613 22.5000003,23.7688213 22.5000003,25.4659562 L22.5,49 L25.5,49 L25.5000003,25.4659562 C25.5000003,24.9453649 25.9717887,24.2130157 26.4450695,23.9977339 L47.6210729,14.3653822 L46.3789271,11.6346178 L46.3789271,11.6346178 Z" id="Shape"></path>
                    <path d="M18,19 C18,19 22.3221294,21.3680677 25.0000002,21.3680678 C27.6778709,21.368068 32,19 32,19 L27.620551,23 L22.4728314,23 L18,19 Z" id="Path-120"></path>
                </g>
            </g>
        </g>
    </g>
</svg>